external_pedal_forces_trial_4.mot
version=1
nRows=37
nColumns=7
inDegrees=yes
endheader
time	PedalClip_calcn_r_Fx	PedalClip_calcn_r_Fy	PedalClip_calcn_r_Fz	PedalClip_calcn_r_Px	PedalClip_calcn_r_Py	PedalClip_calcn_r_Pz
2.27102685	-12.3883943358318	26.5226224921968	384.106181385773	0.185321355804713	-0.155132327819517	0.089
2.27119675	-12.5016317132771	26.6040179463337	384.755281721558	0.18509710463525	-0.15483359871744	0.089
2.27148704	-12.6151477990789	26.685884054987	385.405801036688	0.184874162490842	-0.154534920234254	0.089
2.271873	-12.7289393015493	26.7682179780483	386.057717916618	0.184652526852782	-0.154236291174211	0.089
2.27192719	-12.8430070827616	26.8510213457592	386.711038617255	0.184432189541592	-0.153937706950828	0.089
2.27206506	-12.957357596003	26.9343019784461	387.365805926496	0.184213132975498	-0.153639161401108	0.089
2.27245814	-13.0719965773157	27.0180678180852	388.022060933028	0.183995341947007	-0.153340653625855	0.089
2.27262452	-13.1869263063064	27.1023250923258	388.679824600043	0.183778806404596	-0.153042181368038	0.089
2.27291157	-13.3021465824638	27.1870768096397	389.339099595125	0.183563521133482	-0.152743745307143	0.089
2.27329169	-13.4176560605009	27.2723249623002	389.999882046186	0.183349480385071	-0.152445341221736	0.089
2.27334652	-13.5334557433918	27.358073523652	390.662182645674	0.183136677683836	-0.152146965425175	0.089
2.27348288	-13.6495515805964	27.4443282412512	391.326037585778	0.182925099878868	-0.151848613881551	0.089
2.27387479	-13.7659490240404	27.5310932234752	391.991478432987	0.182714733957987	-0.151550287262794	0.089
2.2740364	-13.8826500067643	27.618370460982	392.65851539287	0.182505572415775	-0.151251985170394	0.089
2.27431972	-13.9996534893437	27.7061606911471	393.327143079001	0.182297610891124	-0.15095370781617	0.089
2.27469469	-14.1169575389971	27.7944620036658	393.997347848823	0.182090846212288	-0.150655453024805	0.089
2.27475011	-14.2345630002785	27.8832746361441	394.669131362015	0.181885273621112	-0.150357219716361	0.089
2.2748851	-14.3524752363244	27.9726037802175	395.342523875947	0.181680881214919	-0.150059005848062	0.089
2.27527644	-14.4706986514938	28.062454427988	396.017551558418	0.181477657112956	-0.149760813487799	0.089
2.27543365	-14.5892340910253	28.1528298060402	396.694220179442	0.181275595308419	-0.149462643276676	0.089
2.27571375	-14.7080801474028	28.2437307533504	397.372520125034	0.181074692278354	-0.149164495009572	0.089
2.27608389	-14.8272345361446	28.3351579409134	398.05243817652	0.180874945288735	-0.148866366235218	0.089
2.27613984	-14.9466976830925	28.4271157731143	398.73398072525	0.180676349456332	-0.148568254696194	0.089
2.27627353	-15.0664750146234	28.5196125169762	399.417183514633	0.180478892712107	-0.148270156444395	0.089
2.27666438	-15.1865709133844	28.6126559584468	400.102078309105	0.180282563631342	-0.147972072315947	0.089
2.27681782	-15.3069866598873	28.7062499960561	400.788674752331	0.180087356549798	-0.147674001983495	0.089
2.27709508	-15.4277213423225	28.8003946553442	401.476965329662	0.179893268526477	-0.147375944905901	0.089
2.27746075	-15.5487732267546	28.8950886641425	402.166938066142	0.179700296614788	-0.147077898165244	0.089
2.27751715	-15.6701434965202	28.990333111077	402.858598236188	0.179508435909806	-0.146779859000081	0.089
2.27764962	-15.7918382022982	29.0861330027854	403.55197995116	0.179317674847792	-0.146481822685544	0.089
2.27804001	-15.9138628303519	29.1824913940161	404.247111832114	0.179128002392517	-0.146183789066837	0.089
2.2781902	-16.0362196165389	29.2794095485368	404.944002964259	0.178939413112786	-0.145885756904488	0.089
2.27846488	-16.1589081373713	29.3768873680155	405.642648027424	0.178751904241423	-0.145587725416079	0.089
2.2788265	-16.2819272348698	29.4749224626549	406.343035500785	0.17856547285204	-0.145289692494118	0.089
2.27888325	-16.4052784293659	29.5735151357484	407.045170644218	0.178380114236894	-0.144991655875629	0.089
2.27901462	-16.5289679217145	29.6726705636734	407.749087452282	0.178195817462409	-0.144693610081871	0.089
2.27940447	-16.6530008309418	29.7723939296817	408.454816340666	0.178012572055394	-0.144395554396511	0.089
